P1
# Created by GIMP version 2.10.28 PNM plug-in
168 112
0100000000000000000000000000000000000000000000000000000000000000000000
0000000000000000000000000000000000000000000000000000000000000000000000
0000000000000000000000010000010000000000000000000000000000000000000000
0000000000000000000000000000000000000000000000000000000000000000000000
0000000000000000000000000000000000000000000000000001000001000000000000
0000000000000000000000000000000000000000000000000000000000000000000000
0000000000000000000000000000000000000000000000000000000000000000000000
0000000001000001000000000000000000000000000000000000000000000000000000
0000000000000000000000000000000000000000000000000000000000000000000000
0000000000000000000000000000000000000100000100000000000000000000000000
0000000000000000000000000000000000000000000000000000000000000000000000
0000000000000000000000000000000000000000000000000000000000000000010000
0100000000000000000000000000000000000000000000000000000000000000000000
0000000000000000000000000000000000000000000000000000000000000000000000
0000000000000000000000010000010000000000000000000000000000000000000000
0000000000000000000000000000000000000000000000000000000000000000000000
0000000000000000000000000000000000000000000000000001000001000000000000
0000000000000000000000000000000000000000000000000000000000000000000000
0000000000000000000000000000000000000000000000000000000000000000000000
0000000001000001000000000000000000000000000000000000000000000000000000
0000000000000000000000000000000000000000000000000000000000000000000000
0000000000000000000000000000000000000100000100000000000000000000000000
0000000000000000000000000000000000000000000000000000000000000000000000
0000000000000000000000000000000000000000000000000000000000000000010000
0100000000000000000000000000000000000000000000000000000000000000000000
0000000000000000000000000000000000000000000000000000000000000000000000
0000000000000000000000010000010000000000000000000000000000000000000000
0000000000000000000000000000000000000000000000000000000000000000000000
0000000000000000000000000000000000000000000000000001000001000000000000
0000000000000000000000000000000000000000000000000000000000000000000000
0000000000000000000000000000000000000000000000000000000000000000000000
0000000001000001000000000000000000000000000000000000000000000000000000
0000000000000000000000000000000000000000000000000000000000000000000000
0000000000000000000000000000000000000100000100000000000000000000000000
0000000000000000000000000000000000000000000000000000000000000000000000
0000000000000000000000000000000000000000000000000000000000000000010000
0100000000000000000000000000000000000000000000000000000000000000000000
0000000000000000000000000000000000000000000000000000000000000000000000
0000000000000000000000010000010000000000000000000000000000000000000000
0000000000000000000000000000000000000000000000000000000000000000000000
0000000000000000000000000000000000000000000000000001000001000000000000
0000000000000000000000000000000000000000000000000000000000000000000000
0000000000000000000000000000000000000000000000000000000000000000000000
0000000001000001000000000000000000000000000000000000000000000000000000
0000000000000000000000000000000000000000000000000000000000000000000000
0000000000000000000000000000000000000100000100000000000000000000000000
0000000000000000000000000000000000000000000000000000000000000000000000
0000000000000000000000000000000000000000000000000000000000000000010000
0100000000000000000000000000000000000000000000000000000000000000000000
0000000000000000000000000000000000000000000000000000000000000000000000
0000000000000000000000010000010000000000000000000000000000000000000000
0000000000000000000000000000000000000000000000000000000000000000000000
0000000000000000000000000000000000000000000000000001000001000000000000
0000000000000000000000000000000000000000000000000000000000000000000000
0000000000000000000000000000000000000000000000000000000000000000000000
0000000001000001000000000000000000000000000000000000000000000000000000
0000000000000000000000000000000000000000000000000000000000000000000000
0000000000000000000000000000000000000100000100000000000000000000000000
0000000000000000000000000000000000000000000000000000000000000000000000
0000000000000000000000000000000000000000000000000000000000000000010000
0100000000000000000000000000000000000000000000000000000000000000000000
0000000000000000000000000000000000000000000000000000000000000000000000
0000000000000000000000010000010000000000000000000000000000000000000000
0000000000000000000000000000000000000000000000000000000000000000000000
0000000000000000000000000000000000000000000000000001000001000000000000
0000000000000000000000000000000000000000000000000000000000000000000000
0000000000000000000000000000000000000000000000000000000000000000000000
0000000001000001000000000000000000000000000000000000000000000000000000
0000000000000000000000000000000000000000000000000000000000000000000000
0000000000000000000000000000000000000100000100000000000000000000000000
0000000000000000000000000000000000000000000000000000000000000000000000
0000000000000000000000000000000000000000000000000000000000000000010000
0100000000000000000000000000000000000000000000000000000000000000000000
0000000000000000000000000000000000000000000000000000000000000000000000
0000000000000000000000010000010000000000000000111111111111111111111111
1111111111111111111111111111111111111111111111111111111111111111111111
1100000000000000000000000000000000000000000000000001000001000000000000
0000111111111111111111111111111111111111111111111111111111111111111111
1111111111111111111111111111110000000000000000000000000000000000000000
0000000001000001000000000000000011111111111111111111111111111111111111
1111111111111111111111111111111111111111111111111111111111000000000000
0000000000000000000000000000000000000100000100000000000000001111111111
1111111111111111111111111111111111111111111111111111111111111111111111
1111111111111111000000000000000000000000000000000000000000000000010000
0100000000000000001111111111111111111111111111111111111111111111111111
1111111111111111111111111111111111111111111100000000000000000000000000
0000000000000000000000010000010000000000000000111111111111111111111111
1111111111111111111111111111111111111111111111111111111111111111111111
1100000000000000000000000000000000000000000000000001000001000000000000
0000111111111111111111111111111111111111111111111111111111111111111111
1111111111111111111111111111110000000000000000000000000000000000000000
0000000001000001000000000000000011111111111111111111111111111111111111
1111111111111111111111111111111111111111111111111111111111000000000000
0000000000000000000000000000000000000100000100000000000000001111111111
1111111111111111111111111111111111111111111111111111111111111111111111
1111111111111111000000000000000000000000000000000000000000000000010000
0100000000000000001111111111111111111111111111111111111111111111111111
1111111111111111111111111111111111111111111100000000000000000000000000
0000000000000000000000010000010000000000000000111111111111111111111111
1111111111111111111111111111111111111111111111111111111111111111111111
1100000000000000000000000000000000000000000000000001000001000000000000
0000111111111111111111111111111111111111111111111111111111111111111111
1111111111111111111111111111110000000000000000000000000000000000000000
0000000001000001000000000000000011111111111111111111111111111111111111
1111111111111111111111111111111111111111111111111111111111000000000000
0000000000000000000000000000000000000100000100000000000000001111111111
1111111111111111111111111111111111111111111111111111111111111111111111
1111111111111111000000000000000000000000000000000000000000000000010000
0100000000000000001111111111111111111111111111111111111111111111111111
1111111111111111111111111111111111111111111100000000000000000000000000
0000000000000000000000010000010000000000000000111111111111111111111111
1111111111111111111111111111111111111111111111111111111111111111111111
1100000000000000000000000000000000000000000000000001000001000000000000
0000111111111111111111111111111111111111111111111111111111111111111111
1111111111111111111111111111110000000000000000000000000000000000000000
0000000001000001000000000000000011111111111111111111111111111111111111
1111111111111111111111111111111111111111111111111111111111000000000000
0000000000000000000000000000000000000100000100000000000000001111111111
1111111111111111111111111111111111111111111111111111111111111111111111
1111111111111111000000000000000000000000000000000000000000000000010000
0100000000000000001111111111111111111111111111111111111111111111111111
1111111111111111111111111111111111111111111100000000000000000000000000
0000000000000000000000010000010000000000000000111111111111111111111111
1111111111111111111111111111111111111111111111111111111111111111111111
1100000000000000000000000000000000000000000000000001000001000000000000
0000111111111111111111111111111111111111111111111111111111111111111111
1111111111111111111111111111110000000000000000000000000000000000000000
0000000001000001000000000000000011111111111111111111111111111111111111
1111111111111111111111111111111111111111111111111111111111000000000000
0000000000000000000000000000000000000100000100000000000000001111111111
1111111111111111111111111111111111111111111111111111111111111111111111
1111111111111111000000000000000000000000000000000000000000000000010000
0100000000000000001111111111111111111111111111111111111111111111111111
1111111111111111111111111111111111111111111100000000000000000000000000
0000000000000000000000010000010000000000000000111111111111111111111111
1111111111111111111111111111111111111111111111111111111111111111111111
1100000000000000000000000000000000000000000000000001000001000000000000
0000111111111111111111111111111111111111111111111111111111111111111111
1111111111111111111111111111110000000000000000000000000000000000000000
0000000001000001000000000000000011111111111111111111111111111111111111
1111111111111111111111111111111111111111111111111111111111000000000000
0000000000000000000000000000000000000100000100000000000000001111111111
1111111111111111111111111111111111111111111111111111111111111111111111
1111111111111111000000000000000000000000000000000000000000000000010000
0100000000000000001111111111111111111111111111111111111111111111111111
1111111111111111111111111111111111111111111100000000000000000000000000
0000000000000000000000010000010000000000000000111111111111111111111111
1111111111111111111111111111111111111111111111111111111111111111111111
1100000000000000000000000000000000000000000000000001000001000000000000
0000111111111111111111111111111111111111111111111111111111111111111111
1111111111111111111111111111110000000000000000000000000000000000000000
0000000001000001000000000000000011111111111111111111111111111111111111
1111111111111111111111111111111111111111111111111111111111000000000000
0000000000000000000000000000000000000100000100000000000000001111111111
1111111111111111111111111111111111111111111111111111111111111111111111
1111111111111111000000000000000000000000000000000000000000000000010000
0100000000000000001111111111111111111111111111111111111111111111111111
1111111111111111111111111111111111111111111100000000000000000000000000
0000000000000000000000010000010000000000000000111111111111111111111111
1111111111111111111111111111111111111111111111111111111111111111111111
1100000000000000000000000000000000000000000000000001000001000000000000
0000111111111111111111111111111111111111111111111111111111111111111111
1111111111111111111111111111110000000000000000000000000000000000000000
0000000001000001000000000000000011111111111111111111111111111111111111
1111111111111111111111111111111111111111111111111111111111000000000000
0000000000000000000000000000000000000100000100000000000000001111111111
1111111111111111111111111111111111111111111111111111111111111111111111
1111111111111111000000000000000000000000000000000000000000000000010000
0100000000000000001111111111111111111111111111111111111111111111111111
1111111111111111111111111111111111111111111100000000000000000000000000
0000000000000000000000010000010000000000000000111111111111111111111111
1111111111111111111111111111111111111111111111111111111111111111111111
1100000000000000000000000000000000000000000000000001000001000000000000
0000111111111111111111111111111111111111111111111111111111111111111111
1111111111111111111111111111110000000000000000000000000000000000000000
0000000001000001000000000000000011111111111111111111111111111111111111
1111111111111111111111111111111111111111111111111111111111000000000000
0000000000000000000000000000000000000100000100000000000000001111111111
1111111111111111111111111111111111111111111111111111111111111111111111
1111111111111111000000000000000000000000000000000000000000000000010000
0100000000000000001111111111111111111111111111111111111111111111111111
1111111111111111111111111111111111111111111100000000000000000000000000
0000000000000000000000010000010000000000000000111111111111111111111111
1111111111111111111111111111111111111111111111111111111111111111111111
1100000000000000000000000000000000000000000000000001000001000000000000
0000111111111111111111111111111111111111111111111111111111111111111111
1111111111111111111111111111110000000000000000000000000000000000000000
0000000001000001000000000000000011111111111111111111111111111111111111
1111111111111111111111111111111111111111111111111111111111000000000000
0000000000000000000000000000000000000100000100000000000000001111111111
1111111111111111111111111111111111111111111111111111111111111111111111
1111111111111111000000000000000000000000000000000000000000000000010000
0100000000000000001111111111111111111111111111111111111111111111111111
1111111111111111111111111111111111111111111100000000000000000000000000
0000000000000000000000010000010000000000000000111111111111111111111111
1111111111111111111111111111111111111111111111111111111111111111111111
1100000000000000000000000000000000000000000000000001000001000000000000
0000111111111111111111111111111111111111111111111111111111111111111111
1111111111111111111111111111110000000000000000000000000000000000000000
0000000001000001000000000000000011111111111111111111111111111111111111
1111111111111111111111111111111111111111111111111111111111000000000000
0000000000000000000000000000000000000100000100000000000000001111111111
1111111111111111111111111111111111111111111111111111111111111111111111
1111111111111111000000000000000000000000000000000000000000000000010000
0100000000000000001111111111111111111111111111111111111111111111111111
1111111111111111111111111111111111111111111100000000000000000000000000
0000000000000000000000010000010000000000000000111111111111111111111111
1111111111111111111111111111111111111111111111111111111111111111111111
1100000000000000000000000000000000000000000000000001000001000000000000
0000111111111111111111111111111111111111111111111111111111111111111111
1111111111111111111111111111110000000000000000000000000000000000000000
0000000001000001000000000000000011111111111111111111111111111111111111
1111111111111111111111111111111111111111111111111111111111000000000000
0000000000000000000000000000000000000100000100000000000000001111111111
1111111111111111111111111111111111111111111111111111111111111111111111
1111111111111111000000000000000000000000000000000000000000000000010000
0100000000000000001111111111111111111111111111111111111111111111111111
1111111111111111111111111111111111111111111100000000000000000000000000
0000000000000000000000010000010000000000000000111111111111111111111111
1111111111111111111111111111111111111111111111111111111111111111111111
1100000000000000000000000000000000000000000000000001000001000000000000
0000111111111111111111111111111111111111111111111111111111111111111111
1111111111111111111111111111110000000000000000000000000000000000000000
0000000001000001000000000000000011111111111111111111111111111111111111
1111111111111111111111111111111111111111111111111111111111000000000000
0000000000000000000000000000000000000100000100000000000000001111111111
1111111111111111111111111111111111111111111111111111111111111111111111
1111111111111111000000000000000000000000000000000000000000000000010000
0100000000000000001111111111111111111111111111111111111111111111111111
1111111111111111111111111111111111111111111100000000000000000000000000
0000000000000000000000010000010000000000000000000000000000000000000000
0000000000000000000000000000000000000000000000000000000000000000000000
0000000000000000000000000000000000000000000000000001000001000000000000
0000000000000000000000000000000000000000000000000000000000000000000000
0000000000000000000000000000000000000000000000000000000000000000000000
0000000001000001000000000000000000000000000000000000000000000000000000
0000000000000000000000000000000000000000000000000000000000000000000000
0000000000000000000000000000000000000100000100000000000000000000000000
0000000000000000000000000000000000000000000000000000000000000000000000
0000000000000000000000000000000000000000000000000000000000000000010000
0100000000000000000000000000000000000000000000000000000000000000000000
0000000000000000000000000000000000000000000000000000000000000000000000
0000000000000000000000010000010000000000000000000000000000000000000000
0000000000000000000000000000000000000000000000000000000000000000000000
0000000000000000000000000000000000000000000000000001000001000000000000
0000000000000000000000000000000000000000000000000000000000000000000000
0000000000000000000000000000000000000000000000000000000000000000000000
0000000001000001000000000000000000000000000000000000000000000000000000
0000000000000000000000000000000000000000000000000000000000000000000000
0000000000000000000000000000000000000100000100000000000000000000000000
0000000000000000000000000000000000000000000000000000000000000000000000
0000000000000000000000000000000000000000000000000000000000000000010000
0100000000000000000000000000000000000000000000000000000000000000000000
0000000000000000000000000000000000000000000000000000000000000000000000
0000000000000000000000010000010000000000000000000000000000000000000000
0000000000000000000000000000000000000000000000000000000000000000000000
0000000000000000000000000000000000000000000000000001000001000000000000
0000000000000000000000000000000000000000000000000000000000000000000000
0000000000000000000000000000000000000000000000000000000000000000000000
0000000001000001000000000000000000000000000000000000000000000000000000
0000000000000000000000000000000000000000000000000000000000000000000000
0000000000000000000000000000000000000100000100000000000000000000000000
0000000000000000000000000000000000000000000000000000000000000000000000
0000000000000000000000000000000000000000000000000000000000000000010000
0100000000000000000000000000000000000000000000000000000000000000000000
0000000000000000000000000000000000000000000000000000000000000000000000
0000000000000000000000010000010000000000000000000000000000000000000000
0000000000000000000000000000000000000000000000000000000000000000000000
00000000000000000000000000000000000000000000000000010000